<svg width="324" height="37" viewBox="0 0 324 37" fill="none" xmlns="http://www.w3.org/2000/svg">
<path d="M1.23223 16.7322C0.255922 17.7085 0.255922 19.2915 1.23223 20.2678L17.1421 36.1777C18.1184 37.154 19.7014 37.154 20.6777 36.1777C21.654 35.2014 21.654 33.6184 20.6777 32.6421L6.53553 18.5L20.6777 4.35786C21.654 3.38155 21.654 1.79864 20.6777 0.82233C19.7014 -0.15398 18.1184 -0.15398 17.1421 0.82233L1.23223 16.7322ZM3 21H8.01562V16H3V21ZM18.0469 21H28.0781V16H18.0469V21ZM38.1094 21H48.1406V16H38.1094V21ZM58.1719 21H68.2031V16H58.1719V21ZM78.2344 21H88.2656V16H78.2344V21ZM98.2969 21H108.328V16H98.2969V21ZM118.359 21H128.391V16H118.359V21ZM138.422 21H148.453V16H138.422V21ZM158.484 21H168.516V16H158.484V21ZM178.547 21H188.578V16H178.547V21ZM198.609 21H208.641V16H198.609V21ZM218.672 21H228.703V16H218.672V21ZM238.734 21H248.766V16H238.734V21ZM258.797 21H268.828V16H258.797V21ZM278.859 21H288.891V16H278.859V21ZM298.922 21H308.953V16H298.922V21ZM318.984 21H324V16H318.984V21Z" fill="#FFC227"/>
</svg>
