<svg width="329" height="38" viewBox="0 0 329 38" fill="none" xmlns="http://www.w3.org/2000/svg">
<path d="M327.768 20.7678C328.744 19.7915 328.744 18.2085 327.768 17.2322L311.858 1.32233C310.882 0.34602 309.299 0.34602 308.322 1.32233C307.346 2.29864 307.346 3.88155 308.322 4.85786L322.464 19L308.322 33.1421C307.346 34.1184 307.346 35.7014 308.322 36.6777C309.299 37.654 310.882 37.654 311.858 36.6777L327.768 20.7678ZM326 16.5H320.906V21.5H326V16.5ZM310.719 16.5L300.531 16.5V21.5L310.719 21.5V16.5ZM290.344 16.5L280.156 16.5V21.5L290.344 21.5V16.5ZM269.969 16.5H259.781V21.5H269.969V16.5ZM249.594 16.5H239.406V21.5H249.594V16.5ZM229.219 16.5L219.031 16.5V21.5L229.219 21.5V16.5ZM208.844 16.5H198.656V21.5H208.844V16.5ZM188.469 16.5H178.281V21.5H188.469V16.5ZM168.094 16.5H157.906V21.5H168.094V16.5ZM147.719 16.5H137.531V21.5H147.719V16.5ZM127.344 16.5H117.156V21.5H127.344V16.5ZM106.969 16.5H96.7812V21.5H106.969V16.5ZM86.5937 16.5L76.4062 16.5V21.5L86.5937 21.5V16.5ZM66.2188 16.5H56.0312V21.5H66.2188V16.5ZM45.8438 16.5H35.6562V21.5H45.8438V16.5ZM25.4688 16.5L15.2812 16.5V21.5L25.4688 21.5V16.5ZM5.09375 16.5H0V21.5H5.09375V16.5Z" fill="#FFC227"/>
</svg>
